<svg width="350" height="350" viewBox="0 0 350 350" fill="none" xmlns="http://www.w3.org/2000/svg">
<rect width="350" height="350" fill="#100E19"/>
<path d="M183.804 66.0037C184.452 65.8581 187.275 70.0788 187.695 70.8342C192.652 79.7467 190.767 90.1631 183.612 97.3222L120.186 159.086C123.941 165.365 129.866 170.549 136.729 173.46L189.466 122.41C218.185 101.023 258.674 124.24 252.337 159.453C249.834 173.356 239.791 181.388 230.126 190.758C238.782 198.957 238.924 212.589 230.837 221.224L166.067 284C157.61 275.85 157.539 262.238 165.476 253.735L229.77 190.765C227.196 186.399 222.993 182.241 218.718 179.378C217.829 178.782 213.832 176.246 213.085 176.551C198.996 190.287 184.921 204.03 170.803 217.738C161.401 226.866 155.135 233.997 140.797 235.563C105.037 239.465 83.3661 198.742 106.701 172.233C108.373 170.334 119.396 160.41 119.631 159.537C119.78 158.975 117.256 156.175 116.68 155.254C111.488 146.958 112.348 136.978 118.593 129.493L183.804 66.0037ZM211.222 135.987C208.548 136.32 205.212 137.879 203.135 139.529C191.137 150.167 180.27 163.244 168.165 173.633C160.533 180.189 151.103 182.345 141.743 177.563C140.534 176.946 137.127 174.084 136.835 174.007C136.423 173.903 136.117 174.007 135.826 174.298C130.363 180.564 120.428 186.544 119.368 195.291C117.49 210.752 135.257 219.97 147.575 209.969C159.893 199.969 170.896 185.221 183.257 175.179C190.81 169.045 201.087 168.089 209.55 173.093C210.731 173.792 212.36 175.525 213.092 175.892C213.37 176.031 213.533 176.121 213.796 175.892C221.968 166.945 235.425 159.946 229.372 145.814C226.328 138.697 219.045 135.017 211.222 135.994V135.987Z" fill="#F0F0F0"/>
</svg>
